<?xml version="1.0" encoding="UTF-8" standalone="no"?>
<svg
   viewBox="0 0 128 128"
   style="display:inline;enable-background:new"
   version="1.0"
   id="svg11300"
   height="128"
   width="128"
   sodipodi:docname="io.github.fastrizwaan.diction.svg"
   inkscape:version="1.4.3 (0d15f75042, 2025-12-25)"
   xml:space="preserve"
   xmlns:inkscape="http://www.inkscape.org/namespaces/inkscape"
   xmlns:sodipodi="http://sodipodi.sourceforge.net/DTD/sodipodi-0.dtd"
   xmlns:xlink="http://www.w3.org/1999/xlink"
   xmlns="http://www.w3.org/2000/svg"
   xmlns:svg="http://www.w3.org/2000/svg"
   xmlns:rdf="http://www.w3.org/1999/02/22-rdf-syntax-ns#"
   xmlns:cc="http://creativecommons.org/ns#"
   xmlns:dc="http://purl.org/dc/elements/1.1/"><sodipodi:namedview
     id="namedview1"
     pagecolor="#ffffff"
     bordercolor="#000000"
     borderopacity="0.25"
     inkscape:showpageshadow="2"
     inkscape:pageopacity="0.0"
     inkscape:pagecheckerboard="0"
     inkscape:deskcolor="#d1d1d1"
     inkscape:zoom="2"
     inkscape:cx="-45.25"
     inkscape:cy="-50"
     inkscape:window-width="2560"
     inkscape:window-height="1371"
     inkscape:window-x="0"
     inkscape:window-y="0"
     inkscape:window-maximized="1"
     inkscape:current-layer="g4" /><title
     id="title4162">Adwaita Icon Template</title><defs
     id="defs3"><linearGradient
       id="linearGradient20"
       inkscape:collect="always"><stop
         style="stop-color:#fbf8f4;stop-opacity:1"
         offset="0"
         id="stop18" /><stop
         style="stop-color:#fcfbf8;stop-opacity:1"
         offset="0.23588696"
         id="stop19" /><stop
         style="stop-color:#f3eee5;stop-opacity:1"
         offset="1"
         id="stop20" /></linearGradient><linearGradient
       id="linearGradient1458"><stop
         id="stop1452"
         offset="0"
         style="stop-color:#deddda;stop-opacity:1" /><stop
         style="stop-color:#ffffff;stop-opacity:1"
         offset="0.51104856"
         id="stop1454" /><stop
         id="stop1456"
         offset="1"
         style="stop-color:#c0bfbc;stop-opacity:1" /></linearGradient><linearGradient
       gradientTransform="translate(0,640)"
       gradientUnits="userSpaceOnUse"
       y2="120"
       x2="416"
       y1="120"
       x1="384"
       id="linearGradient1053-2"
       xlink:href="#linearGradient40" /><linearGradient
       id="b"
       gradientUnits="userSpaceOnUse"
       x1="20"
       x2="108"
       y1="54"
       y2="54"
       gradientTransform="translate(0,-1.9823008)"
       xlink:href="#linearGradient33"><stop
         offset="0"
         stop-color="#3584e4"
         id="stop4"
         style="stop-color:#cf0339;stop-opacity:1;" /><stop
         offset="0.0227273"
         stop-color="#62a0ea"
         id="stop5"
         style="stop-color:#cf0a3f;stop-opacity:1;" /><stop
         offset="0.0909091"
         stop-color="#3584e4"
         id="stop6"
         style="stop-color:#a34b49;stop-opacity:1" /><stop
         offset="1"
         stop-color="#3584e4"
         id="stop7"
         style="stop-color:#a34e4b;stop-opacity:1" /></linearGradient><linearGradient
       id="linearGradient33"
       gradientUnits="userSpaceOnUse"
       x1="20"
       x2="108"
       y1="54"
       y2="54"
       gradientTransform="translate(0,-1.9823008)"><stop
         offset="0"
         stop-color="#3584e4"
         id="stop30"
         style="stop-color:#b40000;stop-opacity:1" /><stop
         offset="0.56746006"
         stop-color="#62a0ea"
         id="stop31"
         style="stop-color:#aa0000;stop-opacity:1;" /></linearGradient><linearGradient
       id="c"
       gradientUnits="userSpaceOnUse"
       x1="20"
       x2="108.09962"
       y1="49"
       y2="49"
       gradientTransform="matrix(1,0,0,1.5862069,0,-32.051266)"><stop
         offset="0"
         stop-color="#62a0ea"
         id="stop8"
         style="stop-color:#ad5f5b;stop-opacity:1" /><stop
         offset="0.01514272"
         stop-color="#8bb9f0"
         id="stop9"
         style="stop-color:#b66262;stop-opacity:1" /><stop
         offset="0.08896804"
         stop-color="#62a0ea"
         id="stop10"
         style="stop-color:#a34b49;stop-opacity:1" /><stop
         offset="1"
         stop-color="#62a0ea"
         id="stop11"
         style="stop-color:#9e4b49;stop-opacity:1" /></linearGradient><linearGradient
       id="linearGradient40"
       inkscape:collect="always"><stop
         style="stop-color:#ede4d7;stop-opacity:1;"
         offset="0"
         id="stop39" /><stop
         style="stop-color:#fcfbf9;stop-opacity:1;"
         offset="0.84838867"
         id="stop23" /><stop
         style="stop-color:#ede4d7;stop-opacity:1;"
         offset="1"
         id="stop40" /></linearGradient><linearGradient
       inkscape:collect="always"
       xlink:href="#linearGradient20"
       id="linearGradient15"
       gradientUnits="userSpaceOnUse"
       gradientTransform="matrix(0.23384828,0,0,0.24778762,-87.604582,58.548673)"
       x1="380.85001"
       y1="120"
       x2="416"
       y2="120" /><clipPath
       id="f-30-4"><rect
         height="152"
         width="192"
         id="rect6-30-0"
         x="0"
         y="0" /></clipPath><mask
       id="e-9-0"><g
         filter="url(#b)"
         id="g5-2-4"
         style="filter:url(#b-4-2)"><rect
           fill-opacity="0.1"
           height="128"
           width="128"
           id="rect5-5-6"
           x="0"
           y="0" /></g></mask><filter
       id="b-4-2"
       height="1"
       width="1"
       x="0"
       y="0"><feColorMatrix
         in="SourceGraphic"
         type="matrix"
         values="0 0 0 0 1 0 0 0 0 1 0 0 0 0 1 0 0 0 1 0"
         id="feColorMatrix3-0-6" /></filter><linearGradient
       id="r"
       gradientUnits="userSpaceOnUse"
       x1="46"
       x2="46"
       y1="108"
       y2="102"
       gradientTransform="translate(-99.063832,8.088484)"><stop
         offset="0"
         stop-color="#ed333b"
         id="stop21" /><stop
         offset="1"
         stop-color="#c01c28"
         id="stop22" /></linearGradient><clipPath
       id="q"><rect
         height="152"
         width="192"
         id="rect21"
         x="0"
         y="0" /></clipPath><mask
       id="o"><g
         filter="url(#d)"
         id="g20"><rect
           fill-opacity="0.1"
           height="128"
           width="128"
           id="rect20"
           x="0"
           y="0" /></g></mask><filter
       id="d"
       height="1"
       width="1"
       x="0"
       y="0"><feColorMatrix
         in="SourceGraphic"
         type="matrix"
         values="0 0 0 0 1 0 0 0 0 1 0 0 0 0 1 0 0 0 1 0"
         id="feColorMatrix11" /></filter><linearGradient
       id="p"
       gradientTransform="matrix(0.745098,0,0,1,18.705883,-158)"
       x1="42"
       x2="93"
       xlink:href="#f"
       y1="273"
       y2="273" /><linearGradient
       id="f"
       gradientUnits="userSpaceOnUse"><stop
         offset="0"
         stop-opacity="0"
         id="stop12" /><stop
         offset="0.2"
         id="stop13" /><stop
         offset="0.8"
         stop-opacity="0.94902"
         id="stop14-3" /><stop
         offset="1"
         stop-opacity="0"
         id="stop15-6" /></linearGradient><clipPath
       id="h"><rect
         height="152"
         width="192"
         id="rect15"
         x="0"
         y="0" /></clipPath><mask
       id="e"><g
         filter="url(#d)"
         id="g11"><rect
           fill-opacity="0.1"
           height="128"
           width="128"
           id="rect11"
           x="0"
           y="0" /></g></mask><filter
       id="filter1"
       height="1"
       width="1"
       x="0"
       y="0"><feColorMatrix
         in="SourceGraphic"
         type="matrix"
         values="0 0 0 0 1 0 0 0 0 1 0 0 0 0 1 0 0 0 1 0"
         id="feColorMatrix1" /></filter><linearGradient
       id="g"
       gradientTransform="matrix(1.372549,0,0,1,-19.647058,-154)"
       x1="42"
       x2="93"
       xlink:href="#f"
       y1="273"
       y2="273" /><clipPath
       id="k"><rect
         height="152"
         width="192"
         id="rect17"
         x="0"
         y="0" /></clipPath><mask
       id="i"><g
         filter="url(#d)"
         id="g16"><rect
           fill-opacity="0.1"
           height="128"
           width="128"
           id="rect16"
           x="0"
           y="0" /></g></mask><filter
       id="filter4"
       height="1"
       width="1"
       x="0"
       y="0"><feColorMatrix
         in="SourceGraphic"
         type="matrix"
         values="0 0 0 0 1 0 0 0 0 1 0 0 0 0 1 0 0 0 1 0"
         id="feColorMatrix4" /></filter><linearGradient
       id="j"
       gradientTransform="matrix(1.45098,0,0,1,-26.941177,-150)"
       x1="42"
       x2="93"
       xlink:href="#f"
       y1="273"
       y2="273" /><clipPath
       id="n"><rect
         height="152"
         width="192"
         id="rect19"
         x="0"
         y="0" /></clipPath><mask
       id="l"><g
         filter="url(#d)"
         id="g18"><rect
           fill-opacity="0.1"
           height="128"
           width="128"
           id="rect18"
           x="0"
           y="0" /></g></mask><filter
       id="filter8"
       height="1"
       width="1"
       x="0"
       y="0"><feColorMatrix
         in="SourceGraphic"
         type="matrix"
         values="0 0 0 0 1 0 0 0 0 1 0 0 0 0 1 0 0 0 1 0"
         id="feColorMatrix8" /></filter><linearGradient
       id="m"
       gradientTransform="matrix(1.176471,0,0,1,-1.411765,-146)"
       x1="42"
       x2="93"
       xlink:href="#f"
       y1="273"
       y2="273" /><linearGradient
       id="r-3"
       gradientUnits="userSpaceOnUse"
       x1="46"
       x2="46"
       y1="108"
       y2="102"
       gradientTransform="matrix(0.63044807,0,0,0.60993867,-98.06415,-110.7093)"><stop
         offset="0"
         stop-color="#ed333b"
         id="stop21-6" /><stop
         offset="1"
         stop-color="#c01c28"
         id="stop22-0" /></linearGradient><filter
       id="d-7"
       height="1"
       width="1"
       x="0"
       y="0"><feColorMatrix
         in="SourceGraphic"
         type="matrix"
         values="0 0 0 0 1 0 0 0 0 1 0 0 0 0 1 0 0 0 1 0"
         id="feColorMatrix11-9" /></filter><clipPath
       id="h-7"><rect
         height="152"
         width="192"
         id="rect15-5"
         x="0"
         y="0" /></clipPath><mask
       id="e-9"><g
         filter="url(#d)"
         id="g11-2"
         style="filter:url(#d-7)"><rect
           fill-opacity="0.1"
           height="128"
           width="128"
           id="rect11-2"
           x="0"
           y="0" /></g></mask><filter
       id="filter1-8"
       height="1"
       width="1"
       x="0"
       y="0"><feColorMatrix
         in="SourceGraphic"
         type="matrix"
         values="0 0 0 0 1 0 0 0 0 1 0 0 0 0 1 0 0 0 1 0"
         id="feColorMatrix1-9" /></filter><clipPath
       id="k-1"><rect
         height="152"
         width="192"
         id="rect17-2"
         x="0"
         y="0" /></clipPath><mask
       id="i-9"><g
         filter="url(#d)"
         id="g16-3"
         style="filter:url(#d-7)"><rect
           fill-opacity="0.1"
           height="128"
           width="128"
           id="rect16-1"
           x="0"
           y="0" /></g></mask><filter
       id="filter4-9"
       height="1"
       width="1"
       x="0"
       y="0"><feColorMatrix
         in="SourceGraphic"
         type="matrix"
         values="0 0 0 0 1 0 0 0 0 1 0 0 0 0 1 0 0 0 1 0"
         id="feColorMatrix4-4" /></filter><clipPath
       id="n-0"><rect
         height="152"
         width="192"
         id="rect19-3"
         x="0"
         y="0" /></clipPath><mask
       id="l-6"><g
         filter="url(#d)"
         id="g18-1"
         style="filter:url(#d-7)"><rect
           fill-opacity="0.1"
           height="128"
           width="128"
           id="rect18-0"
           x="0"
           y="0" /></g></mask><filter
       id="filter8-6"
       height="1"
       width="1"
       x="0"
       y="0"><feColorMatrix
         in="SourceGraphic"
         type="matrix"
         values="0 0 0 0 1 0 0 0 0 1 0 0 0 0 1 0 0 0 1 0"
         id="feColorMatrix8-3" /></filter><linearGradient
       inkscape:collect="always"
       xlink:href="#r-3"
       id="linearGradient151"
       x1="-414.26166"
       y1="370.31442"
       x2="-394.26166"
       y2="392.31448"
       gradientUnits="userSpaceOnUse"
       gradientTransform="matrix(-0.24928758,0,0,0.26548615,-162.35615,7.4255901)" /><clipPath
       id="f-30-4-1"><rect
         height="152"
         width="192"
         id="rect6-30-0-9"
         x="0"
         y="0" /></clipPath><mask
       id="e-9-0-6"><g
         filter="url(#b)"
         id="g5-2-4-2"
         style="filter:url(#b-4-2-2)"><rect
           fill-opacity="0.1"
           height="128"
           width="128"
           id="rect5-5-6-1"
           x="0"
           y="0" /></g></mask><filter
       id="b-4-2-2"
       height="1"
       width="1"
       x="0"
       y="0"><feColorMatrix
         in="SourceGraphic"
         type="matrix"
         values="0 0 0 0 1 0 0 0 0 1 0 0 0 0 1 0 0 0 1 0"
         id="feColorMatrix3-0-6-0" /></filter><clipPath
       id="f-30-4-5"><rect
         height="152"
         width="192"
         id="rect6-30-0-6"
         x="0"
         y="0" /></clipPath><mask
       id="e-9-0-5"><g
         filter="url(#b)"
         id="g5-2-4-4"
         style="filter:url(#b-4-2-21)"><rect
           fill-opacity="0.1"
           height="128"
           width="128"
           id="rect5-5-6-2"
           x="0"
           y="0" /></g></mask><filter
       id="b-4-2-21"
       height="1"
       width="1"
       x="0"
       y="0"><feColorMatrix
         in="SourceGraphic"
         type="matrix"
         values="0 0 0 0 1 0 0 0 0 1 0 0 0 0 1 0 0 0 1 0"
         id="feColorMatrix3-0-6-7" /></filter><clipPath
       id="q-1"><rect
         height="152"
         width="192"
         id="rect21-6"
         x="0"
         y="0" /></clipPath><mask
       id="o-5"><g
         filter="url(#d)"
         id="g20-7"
         style="filter:url(#d-9)"><rect
           fill-opacity="0.1"
           height="128"
           width="128"
           id="rect20-85"
           x="0"
           y="0" /></g></mask><filter
       id="d-9"
       height="1"
       width="1"
       x="0"
       y="0"><feColorMatrix
         in="SourceGraphic"
         type="matrix"
         values="0 0 0 0 1 0 0 0 0 1 0 0 0 0 1 0 0 0 1 0"
         id="feColorMatrix11-2" /></filter><clipPath
       id="h-79"><rect
         height="152"
         width="192"
         id="rect15-7"
         x="0"
         y="0" /></clipPath><mask
       id="e-2"><g
         filter="url(#d)"
         id="g11-21"
         style="filter:url(#d-9)"><rect
           fill-opacity="0.1"
           height="128"
           width="128"
           id="rect11-6"
           x="0"
           y="0" /></g></mask><filter
       id="filter1-3"
       height="1"
       width="1"
       x="0"
       y="0"><feColorMatrix
         in="SourceGraphic"
         type="matrix"
         values="0 0 0 0 1 0 0 0 0 1 0 0 0 0 1 0 0 0 1 0"
         id="feColorMatrix1-0" /></filter><clipPath
       id="k-2"><rect
         height="152"
         width="192"
         id="rect17-1"
         x="0"
         y="0" /></clipPath><mask
       id="i-5"><g
         filter="url(#d)"
         id="g16-6"
         style="filter:url(#d-9)"><rect
           fill-opacity="0.1"
           height="128"
           width="128"
           id="rect16-5"
           x="0"
           y="0" /></g></mask><filter
       id="filter4-0"
       height="1"
       width="1"
       x="0"
       y="0"><feColorMatrix
         in="SourceGraphic"
         type="matrix"
         values="0 0 0 0 1 0 0 0 0 1 0 0 0 0 1 0 0 0 1 0"
         id="feColorMatrix4-0" /></filter><clipPath
       id="n-3"><rect
         height="152"
         width="192"
         id="rect19-4"
         x="0"
         y="0" /></clipPath><mask
       id="l-66"><g
         filter="url(#d)"
         id="g18-0"
         style="filter:url(#d-9)"><rect
           fill-opacity="0.1"
           height="128"
           width="128"
           id="rect18-2"
           x="0"
           y="0" /></g></mask><filter
       id="filter8-5"
       height="1"
       width="1"
       x="0"
       y="0"><feColorMatrix
         in="SourceGraphic"
         type="matrix"
         values="0 0 0 0 1 0 0 0 0 1 0 0 0 0 1 0 0 0 1 0"
         id="feColorMatrix8-8" /></filter><clipPath
       id="q-6-0"><rect
         height="152"
         width="192"
         id="rect21-2-6"
         x="0"
         y="0" /></clipPath><mask
       id="o-6-0"><g
         filter="url(#d)"
         id="g20-1-8"
         style="filter:url(#d-7-7)"><rect
           fill-opacity="0.1"
           height="128"
           width="128"
           id="rect20-8-3"
           x="0"
           y="0" /></g></mask><filter
       id="d-7-7"
       height="1"
       width="1"
       x="0"
       y="0"><feColorMatrix
         in="SourceGraphic"
         type="matrix"
         values="0 0 0 0 1 0 0 0 0 1 0 0 0 0 1 0 0 0 1 0"
         id="feColorMatrix11-9-8" /></filter><clipPath
       id="h-7-2"><rect
         height="152"
         width="192"
         id="rect15-5-1"
         x="0"
         y="0" /></clipPath><mask
       id="e-9-05"><g
         filter="url(#d)"
         id="g11-2-8"
         style="filter:url(#d-7-7)"><rect
           fill-opacity="0.1"
           height="128"
           width="128"
           id="rect11-2-5"
           x="0"
           y="0" /></g></mask><filter
       id="filter1-8-5"
       height="1"
       width="1"
       x="0"
       y="0"><feColorMatrix
         in="SourceGraphic"
         type="matrix"
         values="0 0 0 0 1 0 0 0 0 1 0 0 0 0 1 0 0 0 1 0"
         id="feColorMatrix1-9-0" /></filter><clipPath
       id="k-1-7"><rect
         height="152"
         width="192"
         id="rect17-2-3"
         x="0"
         y="0" /></clipPath><mask
       id="i-9-8"><g
         filter="url(#d)"
         id="g16-3-2"
         style="filter:url(#d-7-7)"><rect
           fill-opacity="0.1"
           height="128"
           width="128"
           id="rect16-1-3"
           x="0"
           y="0" /></g></mask><filter
       id="filter4-9-0"
       height="1"
       width="1"
       x="0"
       y="0"><feColorMatrix
         in="SourceGraphic"
         type="matrix"
         values="0 0 0 0 1 0 0 0 0 1 0 0 0 0 1 0 0 0 1 0"
         id="feColorMatrix4-4-7" /></filter><clipPath
       id="n-0-7"><rect
         height="152"
         width="192"
         id="rect19-3-7"
         x="0"
         y="0" /></clipPath><mask
       id="l-6-6"><g
         filter="url(#d)"
         id="g18-1-9"
         style="filter:url(#d-7-7)"><rect
           fill-opacity="0.1"
           height="128"
           width="128"
           id="rect18-0-1"
           x="0"
           y="0" /></g></mask><filter
       id="filter8-6-1"
       height="1"
       width="1"
       x="0"
       y="0"><feColorMatrix
         in="SourceGraphic"
         type="matrix"
         values="0 0 0 0 1 0 0 0 0 1 0 0 0 0 1 0 0 0 1 0"
         id="feColorMatrix8-3-9" /></filter><clipPath
       id="n-6"><rect
         height="152"
         width="192"
         id="rect19-1"
         x="0"
         y="0" /></clipPath><mask
       id="l-5"><g
         filter="url(#d)"
         id="g18-9"
         style="filter:url(#d-9-5)"><rect
           fill-opacity="0.1"
           height="128"
           width="128"
           id="rect18-4"
           x="0"
           y="0" /></g></mask><filter
       id="d-9-5"
       height="1"
       width="1"
       x="0"
       y="0"><feColorMatrix
         in="SourceGraphic"
         type="matrix"
         values="0 0 0 0 1 0 0 0 0 1 0 0 0 0 1 0 0 0 1 0"
         id="feColorMatrix11-0" /></filter><clipPath
       id="h-7-7"><rect
         height="152"
         width="192"
         id="rect15-5-1-2"
         x="0"
         y="0" /></clipPath><mask
       id="e-9-03"><g
         filter="url(#d)"
         id="g11-2-0"
         style="filter:url(#d-7-4)"><rect
           fill-opacity="0.1"
           height="128"
           width="128"
           id="rect11-2-4"
           x="0"
           y="0" /></g></mask><filter
       id="d-7-4"
       height="1"
       width="1"
       x="0"
       y="0"><feColorMatrix
         in="SourceGraphic"
         type="matrix"
         values="0 0 0 0 1 0 0 0 0 1 0 0 0 0 1 0 0 0 1 0"
         id="feColorMatrix11-9-4" /></filter><clipPath
       id="clipPath6"><rect
         height="152"
         width="192"
         id="rect6"
         x="0"
         y="0" /></clipPath><mask
       id="mask7"><g
         filter="url(#d)"
         id="g7"
         style="filter:url(#d-7-4)"><rect
           fill-opacity="0.1"
           height="128"
           width="128"
           id="rect7"
           x="0"
           y="0" /></g></mask><filter
       id="filter7"
       height="1"
       width="1"
       x="0"
       y="0"><feColorMatrix
         in="SourceGraphic"
         type="matrix"
         values="0 0 0 0 1 0 0 0 0 1 0 0 0 0 1 0 0 0 1 0"
         id="feColorMatrix7" /></filter><clipPath
       id="clipPath13"><rect
         height="152"
         width="192"
         id="rect13"
         x="0"
         y="0" /></clipPath><mask
       id="mask14"><g
         filter="url(#d)"
         id="g14-2"
         style="filter:url(#d-7-4)"><rect
           fill-opacity="0.1"
           height="128"
           width="128"
           id="rect14"
           x="0"
           y="0" /></g></mask><filter
       id="filter14"
       height="1"
       width="1"
       x="0"
       y="0"><feColorMatrix
         in="SourceGraphic"
         type="matrix"
         values="0 0 0 0 1 0 0 0 0 1 0 0 0 0 1 0 0 0 1 0"
         id="feColorMatrix14" /></filter><clipPath
       id="clipPath17"><rect
         height="152"
         width="192"
         id="rect17-6"
         x="0"
         y="0" /></clipPath><mask
       id="mask18"><g
         filter="url(#d)"
         id="g18-18"
         style="filter:url(#d-7-4)"><rect
           fill-opacity="0.1"
           height="128"
           width="128"
           id="rect18-7"
           x="0"
           y="0" /></g></mask><filter
       id="filter18"
       height="1"
       width="1"
       x="0"
       y="0"><feColorMatrix
         in="SourceGraphic"
         type="matrix"
         values="0 0 0 0 1 0 0 0 0 1 0 0 0 0 1 0 0 0 1 0"
         id="feColorMatrix18" /></filter><linearGradient
       inkscape:collect="always"
       xlink:href="#f"
       id="linearGradient22"
       gradientTransform="matrix(1.372549,0,0,1,-19.647058,-154)"
       x1="42"
       y1="273"
       x2="93"
       y2="273" /><linearGradient
       inkscape:collect="always"
       xlink:href="#f"
       id="linearGradient23"
       gradientUnits="userSpaceOnUse" /><linearGradient
       inkscape:collect="always"
       xlink:href="#f"
       id="linearGradient27"
       gradientTransform="matrix(1.372549,0,0,1,-19.647058,-154)"
       x1="42"
       y1="273"
       x2="93"
       y2="273" /><linearGradient
       inkscape:collect="always"
       xlink:href="#f"
       id="linearGradient28"
       gradientTransform="matrix(1.372549,0,0,1,-19.647058,-154)"
       x1="42"
       y1="273"
       x2="93"
       y2="273" /></defs><metadata
     id="metadata4"><rdf:RDF><cc:Work
         rdf:about=""><dc:format>image/svg+xml</dc:format><dc:type
           rdf:resource="http://purl.org/dc/dcmitype/StillImage" /><dc:creator><cc:Agent><dc:title>GNOME Design Team</dc:title></cc:Agent></dc:creator><dc:source /><cc:license
           rdf:resource="http://creativecommons.org/licenses/by-sa/4.0/" /><dc:title>Adwaita Icon Template</dc:title><dc:subject><rdf:Bag /></dc:subject><dc:date /><dc:rights><cc:Agent><dc:title /></cc:Agent></dc:rights><dc:publisher><cc:Agent><dc:title /></cc:Agent></dc:publisher><dc:identifier /><dc:relation /><dc:language /><dc:coverage /><dc:description /><dc:contributor><cc:Agent><dc:title /></cc:Agent></dc:contributor></cc:Work><cc:License
         rdf:about="http://creativecommons.org/licenses/by-sa/4.0/"><cc:permits
           rdf:resource="http://creativecommons.org/ns#Reproduction" /><cc:permits
           rdf:resource="http://creativecommons.org/ns#Distribution" /><cc:requires
           rdf:resource="http://creativecommons.org/ns#Notice" /><cc:requires
           rdf:resource="http://creativecommons.org/ns#Attribution" /><cc:permits
           rdf:resource="http://creativecommons.org/ns#DerivativeWorks" /><cc:requires
           rdf:resource="http://creativecommons.org/ns#ShareAlike" /></cc:License></rdf:RDF></metadata><g
     transform="matrix(1.0349501,0,0,1,-0.71647846,-172)"
     style="display:inline"
     id="layer1"><g
       style="display:none"
       id="layer3"><circle
         style="display:inline;opacity:0.1;vector-effect:none;fill:none;fill-opacity:1;stroke:#000000;stroke-width:0.99;stroke-linecap:butt;stroke-linejoin:miter;stroke-miterlimit:4;stroke-dasharray:0.99, 0.99;stroke-dashoffset:0;stroke-opacity:1;marker:none;marker-start:none;marker-mid:none;marker-end:none;paint-order:normal;enable-background:new"
         id="circle2892"
         r="59.504131"
         cy="236"
         cx="64.000031" /><rect
         style="display:inline;opacity:0.1;vector-effect:none;fill:none;fill-opacity:1;stroke:#000000;stroke-width:0.99;stroke-linecap:butt;stroke-linejoin:miter;stroke-miterlimit:4;stroke-dasharray:0.99, 0.99;stroke-dashoffset:0;stroke-opacity:1;marker:none;marker-start:none;marker-mid:none;marker-end:none;paint-order:normal;enable-background:new"
         id="rect2894"
         width="87.009987"
         height="111.01005"
         x="20.495007"
         y="180.49496"
         rx="8.701004"
         ry="7.9292889" /><rect
         style="display:inline;opacity:0.1;vector-effect:none;fill:none;fill-opacity:1;stroke:#000000;stroke-width:0.99;stroke-linecap:butt;stroke-linejoin:miter;stroke-miterlimit:4;stroke-dasharray:0.99, 0.99;stroke-dashoffset:0;stroke-opacity:1;marker:none;marker-start:none;marker-mid:none;marker-end:none;paint-order:normal;enable-background:new"
         id="rect2896"
         width="103.00952"
         height="103.00952"
         x="12.495266"
         y="184.49524"
         rx="7.9238095"
         ry="7.9238095" /><rect
         style="display:inline;opacity:0.1;vector-effect:none;fill:none;fill-opacity:1;stroke:#000000;stroke-width:0.99;stroke-linecap:butt;stroke-linejoin:miter;stroke-miterlimit:4;stroke-dasharray:0.99, 0.99;stroke-dashoffset:0;stroke-opacity:1;marker:none;marker-start:none;marker-mid:none;marker-end:none;paint-order:normal;enable-background:new"
         id="rect2898"
         width="111.01004"
         height="87.010048"
         x="8.4950066"
         y="200.49496"
         rx="7.9292889"
         ry="8.701005" /><path
         style="display:inline;fill:none;stroke:#62a0ea;stroke-width:2;stroke-linecap:butt;stroke-linejoin:miter;stroke-miterlimit:4;stroke-dasharray:none;stroke-opacity:1;enable-background:new"
         d="M 2.6203015e-5,288.99999 H 128.00003"
         id="path2900" /></g><g
       style="display:inline"
       id="layer9"><g
         transform="translate(192.50002,2.5)"
         id="g1308"
         style="display:inline;enable-background:new"><g
           id="g35"
           transform="matrix(1.0681818,0,0,1.0089286,-94.40911,163.42857)"><path
             id="rect954-3-6"
             d="M -72.638288,33.769911 V 124.95576 H 2.1931556 c 4.145662,0 7.4831439,-3.53643 7.4831439,-7.9292 V 41.69912 c 0,-4.39278 -3.3374819,-7.929209 -7.4831439,-7.929209 z"
             style="display:inline;fill:#7d3433;fill-opacity:1;stroke:none;stroke-width:5.77723;stroke-linecap:butt;stroke-linejoin:miter;stroke-miterlimit:4;stroke-dasharray:none;stroke-dashoffset:0;stroke-opacity:1;marker:none;marker-start:none;marker-mid:none;marker-end:none;paint-order:normal;enable-background:new" /><path
             id="rect954-3-6-1-1"
             d="M -70.767504,53.592921 V 122.97345 H 2.1931558 c 4.1456619,0 7.4831439,-3.53641 7.4831439,-7.92919 V 61.522131 c 0,-4.39278 -3.337482,-7.92921 -7.4831439,-7.92921 z"
             style="display:inline;fill:url(#linearGradient15);fill-opacity:1;stroke:none;stroke-width:5.77723;stroke-linecap:butt;stroke-linejoin:miter;stroke-miterlimit:4;stroke-dasharray:none;stroke-dashoffset:0;stroke-opacity:1;marker:none;marker-start:none;marker-mid:none;marker-end:none;paint-order:normal;enable-background:new" /><path
             id="rect954-3-2-0"
             d="m -72.638288,25.15453 v 76.01361 H 2.1931556 c 4.145662,0 7.4831439,-3.060359 7.4831439,-6.861811 V 32.01634 c 0,-3.80144 -3.3374819,-6.86181 -7.4831439,-6.86181 z"
             style="display:inline;fill:#8b3a39;fill-opacity:1;stroke:none;stroke-width:5.37432;stroke-linecap:butt;stroke-linejoin:miter;stroke-miterlimit:4;stroke-dasharray:none;stroke-dashoffset:0;stroke-opacity:1;marker:none;marker-start:none;marker-mid:none;marker-end:none;paint-order:normal;enable-background:new"
             sodipodi:nodetypes="ccssssc" /><path
             id="rect954-3-2-9-0-3-4"
             d="M -72.638288,13.94691 V 99.452691 H 2.1931556 c 4.145662,0 7.4831439,-3.060371 7.4831439,-6.861812 V 20.80872 c 0,-3.80145 -3.3374819,-6.86181 -7.4831439,-6.86181 z"
             style="display:inline;fill:#a34e4b;fill-opacity:1;stroke:none;stroke-width:5.37432;stroke-linecap:butt;stroke-linejoin:miter;stroke-miterlimit:4;stroke-dasharray:none;stroke-dashoffset:0;stroke-opacity:1;marker:none;marker-start:none;marker-mid:none;marker-end:none;paint-order:normal;enable-background:new"
             sodipodi:nodetypes="ccssssc" /><path
             style="display:inline;opacity:0.187;fill:#ffffff;fill-opacity:1;stroke:none;stroke-width:5.31699;stroke-linecap:butt;stroke-linejoin:miter;stroke-miterlimit:4;stroke-dasharray:none;stroke-dashoffset:0;stroke-opacity:1;marker:none;marker-start:none;marker-mid:none;marker-end:none;paint-order:normal;enable-background:new"
             d="m -70.837088,13.94691 h 1.870787 v 85.505781 h -1.870787 z"
             id="rect1366-2-2"
             sodipodi:nodetypes="ccccc" /><path
             style="display:inline;opacity:0.57995;fill:#7d3433;fill-opacity:1;stroke:none;stroke-width:5.31699;stroke-linecap:butt;stroke-linejoin:miter;stroke-miterlimit:4;stroke-dasharray:none;stroke-dashoffset:0;stroke-opacity:1;marker:none;marker-start:none;marker-mid:none;marker-end:none;paint-order:normal;enable-background:new"
             d="m -69.627725,13.94691 h 1.870787 v 85.505781 h -1.870787 z"
             id="path15-2"
             sodipodi:nodetypes="ccccc" /><path
             id="rect144"
             style="display:inline;fill:url(#linearGradient151);stroke:none;stroke-width:1.47191;stroke-linejoin:round;stroke-miterlimit:1.4;stroke-opacity:1;enable-background:new"
             d="m -54.100124,105.73895 h -9.971497 v 11.68141 c 0.01773,-0.005 4.743038,-3.6935 4.779787,-3.71684 l 5.19171,3.71684 z"
             sodipodi:nodetypes="cccccc" /><path
             d="M -72.638284,32.60952 H 9.6762995 V 84.487829 H -72.638284 Z"
             fill="#62a0ea"
             id="path41"
             style="display:inline;opacity:0.1399;fill:#ececec;fill-opacity:1;stroke-width:1.01795;enable-background:new"
             sodipodi:nodetypes="ccccc" /></g></g></g></g><g
     id="g4"
     transform="matrix(1.0344497,0,0,0.99091204,83.12817,-58.633112)"
     style="display:inline;enable-background:new"><g
       id="g6"
       transform="translate(-193.33951)"><path
         style="font-size:51.3743px;font-family:'RIT Rachana';-inkscape-font-specification:'RIT Rachana';display:inline;fill:#2e1414;fill-opacity:0.376471;stroke-width:0.328474;enable-background:new"
         d="m 183.03594,129.91285 v -1.80678 h -0.78014 c -0.97518,0 -1.63342,-0.15487 -1.99911,-0.46461 -0.34132,-0.30973 -0.73139,-1.08407 -1.21897,-2.32301 L 168.67646,98.242507 h -1.68218 l -9.36171,25.269163 c -0.73138,1.96165 -1.34087,3.20059 -1.82845,3.74262 -0.48759,0.56785 -1.21898,0.85178 -2.24291,0.85178 h -0.56073 v 1.80678 h 10.77571 v -1.80678 h -0.8289 c -2.19415,0 -3.29122,-0.85178 -3.29122,-2.55532 0,-0.4646 0.1219,-1.08406 0.39007,-1.88421 l 1.34087,-3.9233 h 10.75133 l 2.21852,5.96238 c 0.19504,0.61947 0.31694,1.03245 0.31694,1.21313 0,0.36135 -0.2438,0.64528 -0.70701,0.85177 -0.46321,0.20649 -1.07269,0.33555 -1.82845,0.33555 h -1.70656 v 1.80678 z m -11.75089,-12.26033 h -9.09352 l 4.51019,-12.36356 z m 35.59397,9.73083 c -0.51196,0.18068 -0.80451,0.28393 -0.85327,0.28393 -0.65825,0 -1.09708,-0.25812 -1.36525,-0.80015 -0.26817,-0.51623 -0.39008,-1.39381 -0.39008,-2.63275 v -9.93731 c 0,-3.07154 -0.707,-5.16224 -2.09662,-6.24631 -1.41401,-1.10988 -3.38874,-1.65192 -5.94859,-1.65192 -2.55984,0 -4.68085,0.59366 -6.31427,1.78097 -1.63342,1.16151 -2.46232,2.63275 -2.46232,4.41372 0,0.9292 0.21941,1.67773 0.68262,2.21976 0.43883,0.54204 0.99956,0.82596 1.70656,0.82596 0.68263,0 1.24336,-0.2323 1.6578,-0.74852 0.41445,-0.46461 0.63387,-1.00664 0.63387,-1.54867 0,-0.56785 -0.14628,-1.21313 -0.46321,-1.93585 -0.31693,-0.72271 -0.46321,-1.10988 -0.46321,-1.13569 0,-0.54204 0.41445,-1.00664 1.21897,-1.3938 0.8289,-0.38717 1.95036,-0.59366 3.33999,-0.59366 1.38962,0 2.51108,0.41297 3.33998,1.23894 0.8289,0.80014 1.24335,2.27138 1.24335,4.3879 v 1.98746 c -5.19282,0.95502 -8.84974,2.11652 -10.89761,3.48452 -2.09663,1.34218 -3.12057,3.20058 -3.12057,5.60103 0,1.72935 0.58511,3.09734 1.75533,4.12979 1.19458,1.03245 2.75487,1.54868 4.7296,1.54868 3.16933,0 5.75355,-1.21313 7.75266,-3.61358 0.36569,1.16151 0.8289,1.98747 1.43839,2.45207 0.60948,0.51622 1.41401,0.74852 2.41356,0.74852 0.99956,0 1.92598,-0.28392 2.77926,-0.82595 0.85328,-0.54204 1.26773,-1.08407 1.26773,-1.57449 0,-0.49041 -0.14628,-0.74852 -0.39007,-0.74852 -0.29255,0 -0.68262,0.10324 -1.1946,0.28392 z m -6.53368,-7.27876 c 0,1.52286 -0.0488,2.58112 -0.17066,3.14897 -0.1219,0.61947 -0.41445,1.31637 -0.87766,2.11652 -0.48759,0.80015 -1.21897,1.49705 -2.19415,2.06489 -0.95079,0.59366 -1.95035,0.87758 -2.97429,0.87758 -0.99955,0 -1.85284,-0.36135 -2.55984,-1.13569 -0.707,-0.72271 -1.04831,-1.70354 -1.04831,-2.89086 0,-1.18731 0.26817,-2.16814 0.80452,-2.91666 1.04831,-1.47124 4.04698,-2.65855 9.02039,-3.58776 z"
         id="path5"
         aria-label="Aa" /><path
         style="font-size:51.3743px;font-family:'RIT Rachana';-inkscape-font-specification:'RIT Rachana';display:inline;fill:#fcf9f3;fill-opacity:1;stroke-width:0.328474;enable-background:new"
         d="m 182.15656,127.58012 v -1.80678 h -0.78014 c -0.97518,0 -1.63342,-0.15487 -1.99911,-0.4646 -0.34132,-0.30974 -0.73139,-1.08407 -1.21898,-2.32301 L 167.79707,95.909777 h -1.68218 l -9.3617,25.269163 c -0.73138,1.96165 -1.34087,3.20059 -1.82846,3.74263 -0.48758,0.56785 -1.21896,0.85177 -2.2429,0.85177 h -0.56073 v 1.80678 h 10.77571 v -1.80678 h -0.8289 c -2.19415,0 -3.29122,-0.85177 -3.29122,-2.55531 0,-0.4646 0.12189,-1.08407 0.39007,-1.88422 l 1.34086,-3.9233 h 10.75133 l 2.21853,5.96239 c 0.19504,0.61947 0.31693,1.03244 0.31693,1.21312 0,0.36136 -0.24379,0.64528 -0.707,0.85177 -0.46321,0.20649 -1.07269,0.33555 -1.82846,0.33555 h -1.70656 v 1.80678 z M 170.40567,115.3198 h -9.09352 l 4.51019,-12.36357 z m 35.59398,9.73083 c -0.51198,0.18067 -0.80453,0.28392 -0.85329,0.28392 -0.65824,0 -1.09707,-0.25811 -1.36525,-0.80015 -0.26817,-0.51622 -0.39006,-1.39381 -0.39006,-2.63274 v -9.93732 c 0,-3.07153 -0.70701,-5.16224 -2.09663,-6.24631 -1.41402,-1.10988 -3.38875,-1.65192 -5.94859,-1.65192 -2.55984,0 -4.68085,0.59366 -6.31427,1.78097 -1.63342,1.16151 -2.46233,2.63275 -2.46233,4.41372 0,0.92921 0.21942,1.67773 0.68263,2.21977 0.43883,0.54203 0.99956,0.82595 1.70656,0.82595 0.68263,0 1.24335,-0.2323 1.6578,-0.74852 0.41445,-0.4646 0.63387,-1.00664 0.63387,-1.54867 0,-0.56785 -0.14628,-1.21313 -0.46321,-1.93584 -0.31693,-0.72272 -0.46321,-1.10988 -0.46321,-1.13569 0,-0.54204 0.41445,-1.00664 1.21897,-1.39381 0.8289,-0.38717 1.95035,-0.59366 3.33998,-0.59366 1.38963,0 2.51109,0.41298 3.33998,1.23894 0.82891,0.80015 1.24336,2.27139 1.24336,4.3879 v 1.98747 c -5.19282,0.95501 -8.84974,2.11652 -10.89761,3.48451 -2.09663,1.34218 -3.12057,3.20059 -3.12057,5.60103 0,1.72935 0.58511,3.09735 1.75532,4.1298 1.19459,1.03244 2.75488,1.54867 4.72961,1.54867 3.16933,0 5.75355,-1.21313 7.75266,-3.61357 0.36569,1.1615 0.8289,1.98746 1.43839,2.45206 0.60948,0.51623 1.414,0.74853 2.41356,0.74853 0.99956,0 1.92598,-0.28392 2.77926,-0.82596 0.85327,-0.54203 1.26773,-1.08407 1.26773,-1.57448 0,-0.49041 -0.14628,-0.74853 -0.39008,-0.74853 -0.29255,0 -0.68262,0.10325 -1.19458,0.28393 z m -6.53369,-7.27877 c 0,1.52287 -0.0488,2.58113 -0.17066,3.14897 -0.1219,0.61947 -0.41445,1.31637 -0.87766,2.11652 -0.48759,0.80015 -1.21897,1.49705 -2.19415,2.0649 -0.9508,0.59365 -1.95035,0.87758 -2.97429,0.87758 -0.99956,0 -1.85283,-0.36136 -2.55984,-1.13569 -0.707,-0.72272 -1.04831,-1.70355 -1.04831,-2.89086 0,-1.18732 0.26817,-2.16814 0.80452,-2.91667 1.04831,-1.47123 4.04698,-2.65855 9.02039,-3.58776 z"
         id="path6"
         aria-label="Aa" /></g><g
       clip-path="url(#h-7-7)"
       mask="url(#e-9-03)"
       transform="matrix(0.79410886,0,0,1,-65.807257,51.101763)"
       id="g21"
       style="display:inline;enable-background:new"><path
         d="m 38,118 h 70 v 2 H 38 Z m 0,0"
         fill="url(#g)"
         id="path19"
         style="fill:url(#linearGradient23)" /></g><g
       clip-path="url(#h-7-7)"
       mask="url(#e-9-03)"
       transform="matrix(0.95272902,0,0,1,-82.938234,55.066365)"
       id="g22"
       style="display:inline;enable-background:new"><path
         d="m 38,118 h 70 v 2 H 38 Z m 0,0"
         fill="url(#g)"
         id="path21"
         style="fill:url(#linearGradient22)" /></g><g
       clip-path="url(#h-7-7)"
       mask="url(#e-9-03)"
       transform="matrix(0.98969065,0,0,1,-84.996695,47.137161)"
       id="g26"
       style="display:inline;enable-background:new"><path
         d="m 38,118 h 70 v 2 H 38 Z m 0,0"
         fill="url(#g)"
         id="path25"
         style="fill:url(#linearGradient28)" /></g><g
       clip-path="url(#h-7-7)"
       mask="url(#e-9-03)"
       transform="matrix(0.79410886,0,0,1,-63.873862,43.172559)"
       id="g27"
       style="display:inline;enable-background:new"><path
         d="m 38,118 h 70 v 2 H 38 Z m 0,0"
         fill="url(#g)"
         id="path26"
         style="fill:url(#linearGradient27)" /></g></g></svg>
